<svg width="541" height="185" viewBox="0 0 541 185" fill="none" xmlns="http://www.w3.org/2000/svg">
<rect x="235" y="56" width="238" height="100" rx="10" fill="#41D7D9"/>
<g filter="url(#filter0_d_106_156)">
<path d="M113.334 72L114.334 80.3C113.268 81.5667 111.434 82.7 108.834 83.7V129.4C111.501 130.467 113.334 131.567 114.334 132.7L113.334 141H89.9344L88.9344 132.7C89.801 131.567 91.6344 130.467 94.4344 129.4V83.7C91.701 82.7 89.8677 81.5667 88.9344 80.3L89.9344 72H113.334ZM120.97 78.7C120.97 73.6333 123.804 71.1 129.47 71.1C135.137 71.1 137.97 73.6333 137.97 78.7C137.97 83.1667 136.837 87.3333 134.57 91.2C132.304 95 129.57 98.0333 126.37 100.3L122.17 97.7C124.37 94.0333 125.47 90.4333 125.47 86.9C125.47 86.3667 125.437 85.8667 125.37 85.4C124.104 85 123.037 84.2 122.17 83C121.37 81.7333 120.97 80.3 120.97 78.7ZM144.315 91C147.982 90.2 151.282 89.8 154.215 89.8C157.148 89.8 159.582 89.8667 161.515 90V95C163.115 93.6667 165.115 92.5333 167.515 91.6C169.915 90.6667 172.082 90.2 174.015 90.2C181.615 90.2 186.682 92.1 189.215 95.9C190.882 94.3 193.082 92.9667 195.815 91.9C198.548 90.7667 201.082 90.2 203.415 90.2C210.748 90.2 215.682 91.8667 218.215 95.2C220.748 98.4667 222.015 104.633 222.015 113.7V129.9C224.615 130.9 226.448 132.033 227.515 133.3L226.515 141H203.515L202.515 133.3C203.448 132.033 205.282 130.9 208.015 129.9V110.1C208.015 106.433 207.515 104 206.515 102.8C205.515 101.6 203.515 101 200.515 101C197.582 101 194.782 102.1 192.115 104.3C192.448 106.567 192.615 109.7 192.615 113.7V129.9C195.215 130.9 197.048 132.033 198.115 133.3L197.115 141H174.115L173.115 133.3C174.048 132.033 175.882 130.9 178.615 129.9V110.1C178.615 106.433 178.115 104 177.115 102.8C176.115 101.6 174.148 101 171.215 101C168.282 101 165.482 102.067 162.815 104.2V129.9C165.415 130.9 167.248 132.033 168.315 133.3L167.315 141H144.315L143.315 133.3C144.248 132.033 146.082 130.9 148.815 129.9V102.1C146.482 101.3 144.648 100.167 143.315 98.7L144.315 91Z" fill="#41D7D9"/>
<path d="M300.573 72V89.4L293.173 90.3C291.64 88.9667 290.407 86.5 289.473 82.9H273.873V101.1H287.773C288.573 99.1 289.407 97.7 290.273 96.9L296.573 97.6V115.4L290.273 116.2C289.407 115.533 288.573 114.133 287.773 112H273.873V128.6C278.34 129.6 281.573 130.967 283.573 132.7L282.573 141H254.973L253.973 132.7C254.84 131.567 256.673 130.467 259.473 129.4V83.7C256.74 82.7 254.907 81.5667 253.973 80.3L254.973 72H300.573ZM329.717 141.8C321.717 141.8 315.684 139.667 311.617 135.4C307.617 131.133 305.617 124.933 305.617 116.8C305.617 111.867 306.317 107.633 307.717 104.1C309.117 100.5 311.017 97.7333 313.417 95.8C318.084 92.0667 323.517 90.2 329.717 90.2C335.917 90.2 340.651 91.8 343.917 95C347.251 98.1333 348.917 103.8 348.917 112C348.917 116.8 346.551 119.2 341.817 119.2H320.117C320.384 123.4 321.451 126.367 323.317 128.1C325.251 129.833 328.284 130.7 332.417 130.7C334.684 130.7 336.851 130.433 338.917 129.9C340.984 129.367 342.484 128.833 343.417 128.3L344.817 127.5L347.817 135.5C347.417 135.967 346.817 136.567 346.017 137.3C345.284 137.967 343.351 138.9 340.217 140.1C337.151 141.233 333.651 141.8 329.717 141.8ZM336.017 110.3C336.151 109.367 336.217 108.233 336.217 106.9C336.217 105.567 335.684 104.167 334.617 102.7C333.551 101.167 331.684 100.4 329.017 100.4C326.417 100.4 324.417 101.2 323.017 102.8C321.617 104.4 320.684 107.1 320.217 110.9L336.017 110.3ZM380.057 70C383.857 69.1333 387.49 68.7 390.957 68.7C394.424 68.7 397.39 68.8 399.857 69V129C401.857 129.333 403.69 129.9 405.357 130.7V138.6C401.357 140.733 396.29 141.8 390.157 141.8C389.49 141.467 388.824 140.867 388.157 140C387.557 139.133 387.224 138.3 387.157 137.5C385.69 138.7 383.79 139.733 381.457 140.6C379.124 141.4 376.824 141.8 374.557 141.8C367.357 141.8 362.124 139.867 358.857 136C355.657 132.067 354.057 125.667 354.057 116.8C354.057 106.733 356.524 99.6667 361.457 95.6C365.79 92 371.124 90.2 377.457 90.2C380.257 90.2 383.057 90.5333 385.857 91.2V81.3C382.79 80.4333 380.524 79.2333 379.057 77.7L380.057 70ZM376.657 131.6C380.457 131.6 383.524 130.467 385.857 128.2V101.4C383.124 100.733 380.224 100.4 377.157 100.4C374.09 100.4 371.857 101.767 370.457 104.5C369.124 107.167 368.457 111.2 368.457 116.6C368.457 121.933 369.124 125.767 370.457 128.1C371.79 130.433 373.857 131.6 376.657 131.6ZM433.526 141.8C425.526 141.8 419.492 139.667 415.426 135.4C411.426 131.133 409.426 124.933 409.426 116.8C409.426 111.867 410.126 107.633 411.526 104.1C412.926 100.5 414.826 97.7333 417.226 95.8C421.892 92.0667 427.326 90.2 433.526 90.2C439.726 90.2 444.459 91.8 447.726 95C451.059 98.1333 452.726 103.8 452.726 112C452.726 116.8 450.359 119.2 445.626 119.2H423.926C424.192 123.4 425.259 126.367 427.126 128.1C429.059 129.833 432.092 130.7 436.226 130.7C438.492 130.7 440.659 130.433 442.726 129.9C444.792 129.367 446.292 128.833 447.226 128.3L448.626 127.5L451.626 135.5C451.226 135.967 450.626 136.567 449.826 137.3C449.092 137.967 447.159 138.9 444.026 140.1C440.959 141.233 437.459 141.8 433.526 141.8ZM439.826 110.3C439.959 109.367 440.026 108.233 440.026 106.9C440.026 105.567 439.492 104.167 438.426 102.7C437.359 101.167 435.492 100.4 432.826 100.4C430.226 100.4 428.226 101.2 426.826 102.8C425.426 104.4 424.492 107.1 424.026 110.9L439.826 110.3Z" fill="white"/>
</g>
<path d="M260.34 4.84481C260.528 4.59395 261.124 4.35876 262.127 4.13926C263.162 3.88839 264.134 3.76296 265.044 3.76296C265.953 3.76296 266.706 3.88839 267.301 4.13926L262.692 39.5581H256.295L258.129 23.6596L257.518 23.8478C254.633 24.6944 252.014 25.5254 249.663 26.3407L249.004 31.5148C248.251 37.0652 245.649 39.8404 241.196 39.8404C239.597 39.8404 238.358 39.37 237.48 38.4293C236.602 37.4572 236.163 36.2185 236.163 34.7133C236.163 31.358 238.53 28.332 243.266 25.6352L245.664 5.22111C246.26 4.81346 247.044 4.46852 248.016 4.1863C248.988 3.90407 249.929 3.76296 250.839 3.76296C251.748 3.76296 252.344 3.77864 252.626 3.81L250.18 22.5307C252.093 21.8409 254.507 21.104 257.424 20.32L258.553 20.0378L260.34 4.84481ZM239.456 34.0078C239.456 35.0112 239.91 35.513 240.82 35.513C241.321 35.513 241.651 35.3719 241.807 35.0896C241.964 34.7761 242.074 34.5252 242.137 34.337C242.231 34.1175 242.309 33.8353 242.372 33.4904C242.435 33.1454 242.482 32.8475 242.513 32.5967C242.544 32.3144 242.576 31.9538 242.607 31.5148C242.638 31.0758 242.67 30.7309 242.701 30.48L242.795 29.7744C240.569 31.311 239.456 32.7221 239.456 34.0078Z" fill="#684257"/>
<path d="M273.257 4.93889C273.978 4.18629 274.856 3.81 275.891 3.81C276.926 3.81 277.804 4.18629 278.525 4.93889C279.278 5.66012 279.654 6.53815 279.654 7.57296C279.654 8.60778 279.278 9.4858 278.525 10.207C277.804 10.9283 276.926 11.2889 275.891 11.2889C274.856 11.2889 273.978 10.9283 273.257 10.207C272.536 9.4858 272.175 8.60778 272.175 7.57296C272.175 6.53815 272.536 5.66012 273.257 4.93889ZM271.328 18.7207C271.642 18.1563 272.238 17.733 273.116 17.4507C273.994 17.1372 274.856 16.9804 275.703 16.9804C276.581 16.9804 277.349 17.0901 278.008 17.3096C276.785 26.7484 276.173 31.5148 276.173 31.6089C276.016 32.236 275.938 32.7691 275.938 33.2081C275.938 33.6158 275.969 33.9764 276.032 34.29C276.157 35.1053 276.722 35.513 277.725 35.513C278.76 35.513 279.701 34.8544 280.548 33.5374C281.426 32.189 282.084 30.6681 282.523 28.9748C282.743 29.1002 283.088 29.4765 283.558 30.1037C284.028 30.7309 284.311 31.2012 284.405 31.5148C283.777 34.0235 282.711 36.0461 281.206 37.5826C279.701 39.1191 277.898 39.8874 275.797 39.8874C273.696 39.8874 272.128 39.37 271.093 38.3352C270.09 37.3004 269.588 35.9677 269.588 34.337C269.588 33.9921 269.604 33.6315 269.635 33.2552L271.328 18.7207Z" fill="#684257"/>
<path d="M296.689 0.47037C297.317 0.15679 298.414 0 299.982 0C303.055 0 304.592 0.721235 304.592 2.1637C304.592 2.28914 304.576 2.43025 304.545 2.58704L298.712 27.2344H293.679L296.689 0.47037ZM292.268 33.9137C293.02 33.1611 293.93 32.7848 294.996 32.7848C296.062 32.7848 296.972 33.1611 297.724 33.9137C298.477 34.6663 298.853 35.5757 298.853 36.6419C298.853 37.708 298.477 38.6174 297.724 39.37C296.972 40.0912 296.062 40.4519 294.996 40.4519C293.93 40.4519 293.02 40.0912 292.268 39.37C291.547 38.6174 291.186 37.708 291.186 36.6419C291.186 35.5757 291.547 34.6663 292.268 33.9137Z" fill="#684257"/>
<path d="M217.696 21.1984L214.087 24.807C213.297 25.5977 211.998 25.5977 211.202 24.807L207.593 21.1984C206.802 20.4078 206.802 19.1089 207.593 18.3127L211.202 14.7041C211.992 13.9135 213.291 13.9135 214.087 14.7041L217.696 18.3127C218.487 19.1089 218.487 20.4078 217.696 21.1984Z" fill="#684257"/>
<path d="M333.407 21.1984L329.798 24.807C329.008 25.5977 327.709 25.5977 326.913 24.807L323.304 21.1984C322.513 20.4078 322.513 19.1089 323.304 18.3127L326.913 14.7041C327.703 13.9135 329.002 13.9135 329.798 14.7041L333.407 18.3127C334.198 19.1089 334.198 20.4078 333.407 21.1984Z" fill="#684257"/>
<defs>
<filter id="filter0_d_106_156" x="88.9344" y="68.7" width="363.791" height="77.1" filterUnits="userSpaceOnUse" color-interpolation-filters="sRGB">
<feFlood flood-opacity="0" result="BackgroundImageFix"/>
<feColorMatrix in="SourceAlpha" type="matrix" values="0 0 0 0 0 0 0 0 0 0 0 0 0 0 0 0 0 0 127 0" result="hardAlpha"/>
<feOffset dy="4"/>
<feComposite in2="hardAlpha" operator="out"/>
<feColorMatrix type="matrix" values="0 0 0 0 0 0 0 0 0 0 0 0 0 0 0 0 0 0 0.07 0"/>
<feBlend mode="normal" in2="BackgroundImageFix" result="effect1_dropShadow_106_156"/>
<feBlend mode="normal" in="SourceGraphic" in2="effect1_dropShadow_106_156" result="shape"/>
</filter>
</defs>
</svg>
