<svg width="507" height="199" viewBox="0 0 507 199" fill="none" xmlns="http://www.w3.org/2000/svg">
<path d="M124.424 44V1.99999H131.324V44H124.424ZM151.124 44V1.99999H158.024V44H151.124ZM129.164 25.4V19.1H152.624V25.4H129.164ZM166.299 44V15.2H172.899V44H166.299ZM169.599 9.92C168.479 9.92 167.539 9.54 166.779 8.78C166.059 8.02 165.699 7.08 165.699 5.96C165.699 4.84 166.059 3.89999 166.779 3.13999C167.539 2.37999 168.479 1.99999 169.599 1.99999C170.759 1.99999 171.699 2.37999 172.419 3.13999C173.139 3.89999 173.499 4.84 173.499 5.96C173.499 7.08 173.139 8.02 172.419 8.78C171.699 9.54 170.759 9.92 169.599 9.92ZM196.694 44V3.2H203.294V44H196.694ZM189.794 21.2V15.2H210.194V21.2H189.794ZM234.729 44V27.38C234.729 25.46 234.109 23.88 232.869 22.64C231.669 21.4 230.109 20.78 228.189 20.78C226.909 20.78 225.769 21.06 224.769 21.62C223.769 22.18 222.989 22.96 222.429 23.96C221.869 24.96 221.589 26.1 221.589 27.38L219.009 25.94C219.009 23.74 219.489 21.8 220.449 20.12C221.409 18.4 222.729 17.06 224.409 16.1C226.129 15.1 228.049 14.6 230.169 14.6C232.329 14.6 234.249 15.08 235.929 16.04C237.609 17 238.929 18.34 239.889 20.06C240.849 21.74 241.329 23.7 241.329 25.94V44H234.729ZM214.989 44V0.799996H221.589V44H214.989ZM261.416 44.6C258.536 44.6 255.936 43.96 253.616 42.68C251.336 41.36 249.516 39.56 248.156 37.28C246.836 35 246.176 32.44 246.176 29.6C246.176 26.76 246.836 24.22 248.156 21.98C249.476 19.7 251.256 17.9 253.496 16.58C255.776 15.26 258.296 14.6 261.056 14.6C263.736 14.6 266.096 15.22 268.136 16.46C270.216 17.7 271.836 19.4 272.996 21.56C274.196 23.72 274.796 26.18 274.796 28.94C274.796 29.42 274.756 29.92 274.676 30.44C274.636 30.92 274.556 31.46 274.436 32.06H250.796V26.66H271.016L268.556 28.82C268.476 27.06 268.136 25.58 267.536 24.38C266.936 23.18 266.076 22.26 264.956 21.62C263.876 20.98 262.536 20.66 260.936 20.66C259.256 20.66 257.796 21.02 256.556 21.74C255.316 22.46 254.356 23.48 253.676 24.8C252.996 26.08 252.656 27.62 252.656 29.42C252.656 31.22 253.016 32.8 253.736 34.16C254.456 35.52 255.476 36.58 256.796 37.34C258.116 38.06 259.636 38.42 261.356 38.42C262.836 38.42 264.196 38.16 265.436 37.64C266.716 37.12 267.796 36.36 268.676 35.36L272.876 39.62C271.476 41.26 269.776 42.5 267.776 43.34C265.776 44.18 263.656 44.6 261.416 44.6ZM280.087 44V15.2H286.687V44H280.087ZM286.687 27.98L284.407 26.84C284.407 23.2 285.207 20.26 286.807 18.02C288.447 15.74 290.907 14.6 294.187 14.6C295.627 14.6 296.927 14.86 298.087 15.38C299.247 15.9 300.327 16.74 301.327 17.9L297.007 22.34C296.487 21.78 295.907 21.38 295.267 21.14C294.627 20.9 293.887 20.78 293.047 20.78C291.207 20.78 289.687 21.36 288.487 22.52C287.287 23.68 286.687 25.5 286.687 27.98ZM317.022 44.6C314.142 44.6 311.542 43.96 309.222 42.68C306.942 41.36 305.122 39.56 303.762 37.28C302.442 35 301.782 32.44 301.782 29.6C301.782 26.76 302.442 24.22 303.762 21.98C305.082 19.7 306.862 17.9 309.102 16.58C311.382 15.26 313.902 14.6 316.662 14.6C319.342 14.6 321.702 15.22 323.742 16.46C325.822 17.7 327.442 19.4 328.602 21.56C329.802 23.72 330.402 26.18 330.402 28.94C330.402 29.42 330.362 29.92 330.282 30.44C330.242 30.92 330.162 31.46 330.042 32.06H306.402V26.66H326.622L324.162 28.82C324.082 27.06 323.742 25.58 323.142 24.38C322.542 23.18 321.682 22.26 320.562 21.62C319.482 20.98 318.142 20.66 316.542 20.66C314.862 20.66 313.402 21.02 312.162 21.74C310.922 22.46 309.962 23.48 309.282 24.8C308.602 26.08 308.262 27.62 308.262 29.42C308.262 31.22 308.622 32.8 309.342 34.16C310.062 35.52 311.082 36.58 312.402 37.34C313.722 38.06 315.242 38.42 316.962 38.42C318.442 38.42 319.802 38.16 321.042 37.64C322.322 37.12 323.402 36.36 324.282 35.36L328.482 39.62C327.082 41.26 325.382 42.5 323.382 43.34C321.382 44.18 319.262 44.6 317.022 44.6ZM337.132 30.08L336.232 0.799996H343.132L342.232 30.08H337.132ZM339.652 44.6C338.372 44.6 337.312 44.18 336.472 43.34C335.672 42.46 335.272 41.4 335.272 40.16C335.272 38.88 335.672 37.82 336.472 36.98C337.312 36.14 338.372 35.72 339.652 35.72C340.932 35.72 341.972 36.14 342.772 36.98C343.612 37.82 344.032 38.88 344.032 40.16C344.032 41.4 343.612 42.46 342.772 43.34C341.972 44.18 340.932 44.6 339.652 44.6Z" fill="#505964" fill-opacity="0.54"/>
<path d="M27.6092 64.14C28.3092 64.14 28.8692 64.7 28.8692 65.26V160.88C28.8692 161.58 28.3092 162.14 27.6092 162.14H5.06922C4.36922 162.14 3.94922 161.58 3.94922 160.88V65.26C3.94922 64.7 4.36922 64.14 5.06922 64.14H27.6092ZM55.2614 63.58C54.4214 66.8467 53.3481 70.3933 52.0414 74.22C50.7347 78.0467 49.2881 81.8733 47.7014 85.7C46.2081 89.4333 44.7147 92.98 43.2214 96.34H34.1214C34.7747 93.7267 35.4281 90.9267 36.0814 87.94C36.8281 84.9533 37.4814 81.9667 38.0414 78.98C38.6947 75.9 39.2547 72.9133 39.7214 70.02C40.2814 67.1267 40.7481 64.4667 41.1214 62.04H54.2814L55.2614 63.58ZM161.634 94.38C169.194 102.08 170.454 108.24 170.454 119.16V160.88C170.454 161.58 169.894 162 169.194 162H147.074C146.514 162 145.954 161.58 145.954 160.88V120.28C145.954 117.48 145.814 114.4 144.554 111.88C144.134 110.76 143.434 109.92 142.594 109.22C141.194 108.1 139.374 107.54 136.994 107.54C132.794 107.54 129.434 109.08 128.454 111.46C127.194 113.98 127.194 117.48 127.194 120.28V160.88C127.194 161.58 126.634 162 126.074 162H104.514C103.814 162 103.254 161.58 103.254 160.88V120.28C103.254 117.48 103.114 114.4 101.994 111.88C101.434 110.76 100.734 109.92 99.8941 109.22C98.4941 108.1 96.6741 107.54 94.4341 107.54C90.0941 107.54 86.8741 109.08 85.7541 111.46C84.6341 113.98 84.6341 117.48 84.6341 120.28V160.88C84.6341 161.58 84.0741 162 83.3741 162H61.2541C60.5541 162 60.1341 161.58 60.1341 160.88V89.06C60.1341 88.36 60.5541 87.8 61.2541 87.8H81.9741C82.6741 87.8 83.2341 88.36 83.2341 89.06V91.02C83.2341 91.58 83.6541 91.86 84.0741 91.58C100.874 79.96 117.114 92.84 117.254 92.98C117.814 93.4 118.374 93.96 118.934 94.38C119.354 94.8 119.774 95.36 120.194 95.78C120.754 96.34 121.594 96.2 122.014 95.64C123.274 94.24 124.814 92.7 126.494 91.44C128.874 89.9 131.254 88.64 133.634 88.08C147.634 83.32 159.814 92.84 159.954 92.98C160.514 93.4 161.074 93.96 161.634 94.38Z" fill="#505964"/>
<path d="M249.939 65.4L251.759 85.42C251.759 86.12 251.199 86.82 250.499 86.82H222.219C221.519 86.82 220.959 87.38 220.959 88.08V100.26C220.959 100.82 221.519 101.38 222.219 101.38H243.079C243.639 101.38 244.199 101.94 244.199 102.64L244.059 122.8C244.059 123.36 243.499 123.92 242.799 123.92H222.219C221.519 123.92 220.959 124.48 220.959 125.18V161.02C220.959 161.72 220.399 162.28 219.699 162.28H197.159C196.459 162.28 196.039 161.72 196.039 161.02V65.4C196.039 64.84 196.459 64.28 197.159 64.28H248.679C249.379 64.28 249.939 64.7 249.939 65.4ZM325.473 114.54C326.593 118.18 327.013 121.82 327.013 125.6C327.013 127.7 326.873 130.22 326.453 132.46C326.313 133.02 325.893 133.44 325.193 133.44H273.253C272.413 133.44 271.853 134.42 272.273 135.26C275.493 140.58 281.233 144.08 287.533 144.08C292.853 144.08 297.893 141.7 301.393 137.08C301.673 136.8 302.093 136.52 302.653 136.66L322.533 140.16C323.233 140.3 323.653 141.14 323.373 141.84C322.953 142.82 322.393 143.94 321.973 144.5L321.693 145.06C321.413 145.62 321.133 146.18 320.713 146.74C320.293 147.44 319.873 148 319.453 148.56L319.173 148.98C319.033 149.12 318.893 149.26 318.753 149.4L318.473 149.68C318.193 150.1 317.913 150.38 317.633 150.66L317.493 150.94C316.933 151.5 316.513 151.92 316.093 152.48L315.813 152.76C315.533 153.04 315.253 153.32 314.833 153.6V153.74C314.413 154.02 314.133 154.44 313.713 154.72L313.293 155L312.873 154.58L313.293 155.14C312.733 155.56 312.173 155.98 311.613 156.4L311.193 156.68C310.633 157.1 309.933 157.52 309.373 157.94L309.093 158.08C308.393 158.64 307.693 159.06 306.853 159.48L306.713 159.62C306.573 159.62 306.293 159.76 306.153 159.9H306.013C305.733 160.04 305.453 160.18 305.033 160.46H304.893C304.193 160.88 303.493 161.16 302.933 161.44H302.793C302.233 161.58 301.953 161.72 301.533 161.86L300.973 162.14C300.553 162.28 299.993 162.42 299.573 162.56H299.433C298.873 162.84 298.313 162.98 297.753 163.12L297.333 163.26C296.213 163.54 295.093 163.68 293.833 163.96H293.413C292.293 164.1 291.033 164.24 289.913 164.38H289.493C288.793 164.38 288.233 164.38 287.673 164.38C287.113 164.38 286.553 164.38 285.853 164.38C285.713 164.38 285.573 164.38 285.433 164.38H285.293C284.873 164.24 284.453 164.24 284.033 164.24H283.893C283.753 164.24 283.613 164.24 283.473 164.1C282.773 164.1 282.213 164.1 281.653 163.96H281.373C280.813 163.82 280.393 163.68 279.973 163.68L279.413 163.54C278.993 163.4 278.573 163.4 278.153 163.26H278.013C277.873 163.12 277.733 163.12 277.593 163.12C277.033 162.98 276.473 162.84 275.913 162.7C275.353 162.42 274.793 162.28 274.233 162.14C274.233 162 274.093 162 273.953 162L273.813 161.86C273.393 161.72 272.973 161.58 272.693 161.44H272.553C272.413 161.3 272.273 161.3 272.133 161.3C271.573 161.02 271.153 160.74 270.593 160.6C270.033 160.32 269.613 160.04 269.053 159.76C268.913 159.76 268.773 159.62 268.633 159.62V159.48C268.213 159.34 267.933 159.2 267.513 158.92L267.093 158.64C266.533 158.36 266.113 158.08 265.693 157.8C260.933 154.58 256.873 150.52 253.933 145.62C253.653 145.34 253.513 144.92 253.233 144.5L253.093 144.22C252.953 143.94 252.673 143.52 252.533 143.1L252.393 142.82C252.393 142.68 252.253 142.68 252.253 142.54C251.413 141 250.853 139.32 250.293 137.64C249.873 136.8 249.733 135.96 249.453 135.26C249.313 134.7 249.173 134 249.033 133.3C248.613 131.48 248.473 129.52 248.333 127.56C248.333 126.86 248.333 126.16 248.333 125.6C248.333 124.9 248.333 124.2 248.333 123.5C248.473 120.14 249.173 116.64 250.293 113.42C250.573 112.3 250.993 111.32 251.413 110.48C251.553 109.92 251.833 109.36 252.113 108.8C252.113 108.8 252.253 108.66 252.253 108.52L252.393 108.24C252.393 108.1 252.533 107.96 252.533 107.82C252.673 107.68 252.673 107.54 252.813 107.54L253.093 106.84C253.373 106.42 253.653 105.86 253.933 105.44C256.873 100.68 260.933 96.48 265.693 93.26C266.113 92.98 266.533 92.7 267.093 92.42L267.513 92.14C267.933 92 268.213 91.72 268.633 91.58V91.44C268.773 91.44 268.913 91.3 269.053 91.3C269.613 91.02 270.033 90.74 270.593 90.46C271.153 90.32 271.573 90.04 272.133 89.76C272.273 89.76 272.413 89.76 272.553 89.62H272.693C272.973 89.48 273.393 89.34 273.813 89.2L273.953 89.06C274.093 89.06 274.233 89.06 274.233 88.92C274.793 88.78 275.353 88.64 275.913 88.36C276.473 88.22 277.033 88.08 277.593 87.94C277.733 87.94 277.873 87.94 278.013 87.8H278.153C278.573 87.66 278.993 87.66 279.413 87.52H279.693C280.253 87.38 281.093 87.24 281.513 87.1H281.653C282.213 87.1 282.773 86.96 283.473 86.96C283.613 86.96 283.753 86.82 283.893 86.82H284.033C284.453 86.82 284.873 86.82 285.293 86.82H285.433C285.573 86.68 285.713 86.68 285.853 86.68C286.553 86.68 287.113 86.68 287.673 86.68C288.233 86.68 288.793 86.68 289.493 86.68H289.913C291.033 86.82 292.293 86.96 293.413 87.1L293.973 87.24C295.093 87.38 296.213 87.52 297.333 87.8L297.753 87.94C298.313 88.08 298.873 88.36 299.433 88.5H299.573C299.993 88.64 300.553 88.78 300.973 88.92C301.113 89.06 301.253 89.06 301.393 89.2C301.953 89.34 302.233 89.48 302.653 89.62H302.933C303.493 89.9 304.193 90.32 304.893 90.6H305.033C305.453 90.88 305.733 91.02 306.013 91.16H306.153L305.873 91.72L306.153 91.16C306.293 91.3 306.573 91.44 306.713 91.58C307.413 91.86 308.393 92.56 309.093 92.98H309.233C309.933 93.4 310.493 93.82 311.193 94.38C311.333 94.52 311.473 94.66 311.613 94.66C312.173 95.08 312.733 95.5 313.293 96.06L313.573 96.2C313.993 96.62 314.413 97.04 314.833 97.32V97.46C315.253 97.74 315.533 98.02 315.813 98.3L316.093 98.58C316.513 99.14 316.933 99.56 317.353 100.12L317.073 100.54L317.493 100.12L317.633 100.4C317.913 100.68 318.193 100.96 318.473 101.38L318.753 101.66C319.033 101.94 319.313 102.36 319.593 102.78C319.873 103.2 320.153 103.48 320.293 103.76L320.713 104.46C320.853 104.74 321.133 105.02 321.273 105.3L321.973 106.56C323.513 109.08 324.633 111.74 325.473 114.54ZM302.653 117.06C303.353 117.06 303.913 116.36 303.913 115.66C302.933 110.2 296.633 106 288.513 106C281.233 106 274.233 110.2 273.253 115.66C273.113 116.36 273.673 117.06 274.373 117.06H302.653ZM410.074 64.42C410.634 64.42 411.194 64.98 411.194 65.68V160.88C411.194 161.44 410.634 162 410.074 162H389.214C388.654 162 388.094 161.44 388.094 160.88V159.76C388.094 159.34 387.534 159.06 387.254 159.2C381.234 162.56 374.514 164.38 367.654 164.38C345.954 164.38 328.314 146.88 328.314 125.46C328.314 104.04 345.954 86.68 367.654 86.68C374.514 86.68 381.234 88.36 387.254 91.72C387.534 92 388.094 91.72 388.094 91.3V65.68C388.094 64.98 388.654 64.42 389.214 64.42H410.074ZM371.154 143.38C381.234 143.38 388.094 135.4 388.094 125.46C388.094 115.66 381.234 107.68 371.154 107.68C361.214 107.68 353.094 115.66 353.094 125.46C353.094 135.4 361.214 143.38 371.154 143.38ZM492.27 114.54C493.39 118.18 493.81 121.82 493.81 125.6C493.81 127.7 493.67 130.22 493.25 132.46C493.11 133.02 492.69 133.44 491.99 133.44H440.05C439.21 133.44 438.65 134.42 439.07 135.26C442.29 140.58 448.03 144.08 454.33 144.08C459.65 144.08 464.69 141.7 468.19 137.08C468.47 136.8 468.89 136.52 469.45 136.66L489.33 140.16C490.03 140.3 490.45 141.14 490.17 141.84C489.75 142.82 489.19 143.94 488.77 144.5L488.49 145.06C488.21 145.62 487.93 146.18 487.51 146.74C487.09 147.44 486.67 148 486.25 148.56L485.97 148.98C485.83 149.12 485.69 149.26 485.55 149.4L485.27 149.68C484.99 150.1 484.71 150.38 484.43 150.66L484.29 150.94C483.73 151.5 483.31 151.92 482.89 152.48L482.61 152.76C482.33 153.04 482.05 153.32 481.63 153.6V153.74C481.21 154.02 480.93 154.44 480.51 154.72L480.09 155L479.67 154.58L480.09 155.14C479.53 155.56 478.97 155.98 478.41 156.4L477.99 156.68C477.43 157.1 476.73 157.52 476.17 157.94L475.89 158.08C475.19 158.64 474.49 159.06 473.65 159.48L473.51 159.62C473.37 159.62 473.09 159.76 472.95 159.9H472.81C472.53 160.04 472.25 160.18 471.83 160.46H471.69C470.99 160.88 470.29 161.16 469.73 161.44H469.59C469.03 161.58 468.75 161.72 468.33 161.86L467.77 162.14C467.35 162.28 466.79 162.42 466.37 162.56H466.23C465.67 162.84 465.11 162.98 464.55 163.12L464.13 163.26C463.01 163.54 461.89 163.68 460.63 163.96H460.21C459.09 164.1 457.83 164.24 456.71 164.38H456.29C455.59 164.38 455.03 164.38 454.47 164.38C453.91 164.38 453.35 164.38 452.65 164.38C452.51 164.38 452.37 164.38 452.23 164.38H452.09C451.67 164.24 451.25 164.24 450.83 164.24H450.69C450.55 164.24 450.41 164.24 450.27 164.1C449.57 164.1 449.01 164.1 448.45 163.96H448.17C447.61 163.82 447.19 163.68 446.77 163.68L446.21 163.54C445.79 163.4 445.37 163.4 444.95 163.26H444.81C444.67 163.12 444.53 163.12 444.39 163.12C443.83 162.98 443.27 162.84 442.71 162.7C442.15 162.42 441.59 162.28 441.03 162.14C441.03 162 440.89 162 440.75 162L440.61 161.86C440.19 161.72 439.77 161.58 439.49 161.44H439.35C439.21 161.3 439.07 161.3 438.93 161.3C438.37 161.02 437.95 160.74 437.39 160.6C436.83 160.32 436.41 160.04 435.85 159.76C435.71 159.76 435.57 159.62 435.43 159.62V159.48C435.01 159.34 434.73 159.2 434.31 158.92L433.89 158.64C433.33 158.36 432.91 158.08 432.49 157.8C427.73 154.58 423.67 150.52 420.73 145.62C420.45 145.34 420.31 144.92 420.03 144.5L419.89 144.22C419.75 143.94 419.47 143.52 419.33 143.1L419.19 142.82C419.19 142.68 419.05 142.68 419.05 142.54C418.21 141 417.65 139.32 417.09 137.64C416.67 136.8 416.53 135.96 416.25 135.26C416.11 134.7 415.97 134 415.83 133.3C415.41 131.48 415.27 129.52 415.13 127.56C415.13 126.86 415.13 126.16 415.13 125.6C415.13 124.9 415.13 124.2 415.13 123.5C415.27 120.14 415.97 116.64 417.09 113.42C417.37 112.3 417.79 111.32 418.21 110.48C418.35 109.92 418.63 109.36 418.91 108.8C418.91 108.8 419.05 108.66 419.05 108.52L419.19 108.24C419.19 108.1 419.33 107.96 419.33 107.82C419.47 107.68 419.47 107.54 419.61 107.54L419.89 106.84C420.17 106.42 420.45 105.86 420.73 105.44C423.67 100.68 427.73 96.48 432.49 93.26C432.91 92.98 433.33 92.7 433.89 92.42L434.31 92.14C434.73 92 435.01 91.72 435.43 91.58V91.44C435.57 91.44 435.71 91.3 435.85 91.3C436.41 91.02 436.83 90.74 437.39 90.46C437.95 90.32 438.37 90.04 438.93 89.76C439.07 89.76 439.21 89.76 439.35 89.62H439.49C439.77 89.48 440.19 89.34 440.61 89.2L440.75 89.06C440.89 89.06 441.03 89.06 441.03 88.92C441.59 88.78 442.15 88.64 442.71 88.36C443.27 88.22 443.83 88.08 444.39 87.94C444.53 87.94 444.67 87.94 444.81 87.8H444.95C445.37 87.66 445.79 87.66 446.21 87.52H446.49C447.05 87.38 447.89 87.24 448.31 87.1H448.45C449.01 87.1 449.57 86.96 450.27 86.96C450.41 86.96 450.55 86.82 450.69 86.82H450.83C451.25 86.82 451.67 86.82 452.09 86.82H452.23C452.37 86.68 452.51 86.68 452.65 86.68C453.35 86.68 453.91 86.68 454.47 86.68C455.03 86.68 455.59 86.68 456.29 86.68H456.71C457.83 86.82 459.09 86.96 460.21 87.1L460.77 87.24C461.89 87.38 463.01 87.52 464.13 87.8L464.55 87.94C465.11 88.08 465.67 88.36 466.23 88.5H466.37C466.79 88.64 467.35 88.78 467.77 88.92C467.91 89.06 468.05 89.06 468.19 89.2C468.75 89.34 469.03 89.48 469.45 89.62H469.73C470.29 89.9 470.99 90.32 471.69 90.6H471.83C472.25 90.88 472.53 91.02 472.81 91.16H472.95L472.67 91.72L472.95 91.16C473.09 91.3 473.37 91.44 473.51 91.58C474.21 91.86 475.19 92.56 475.89 92.98H476.03C476.73 93.4 477.29 93.82 477.99 94.38C478.13 94.52 478.27 94.66 478.41 94.66C478.97 95.08 479.53 95.5 480.09 96.06L480.37 96.2C480.79 96.62 481.21 97.04 481.63 97.32V97.46C482.05 97.74 482.33 98.02 482.61 98.3L482.89 98.58C483.31 99.14 483.73 99.56 484.15 100.12L483.87 100.54L484.29 100.12L484.43 100.4C484.71 100.68 484.99 100.96 485.27 101.38L485.55 101.66C485.83 101.94 486.11 102.36 486.39 102.78C486.67 103.2 486.95 103.48 487.09 103.76L487.51 104.46C487.65 104.74 487.93 105.02 488.07 105.3L488.77 106.56C490.31 109.08 491.43 111.74 492.27 114.54ZM469.45 117.06C470.15 117.06 470.71 116.36 470.71 115.66C469.73 110.2 463.43 106 455.31 106C448.03 106 441.03 110.2 440.05 115.66C439.91 116.36 440.47 117.06 441.17 117.06H469.45Z" fill="#18B8BA"/>
<g clip-path="url(#clip0_131_30)">
<path fill-rule="evenodd" clip-rule="evenodd" d="M213.075 197.958C214.376 197.87 215.683 197.735 216.988 197.694C218.203 197.654 219.419 197.613 220.634 197.573C227.29 197.355 233.945 197.075 240.605 196.99C247.57 196.9 254.539 196.75 261.505 196.734C268.614 196.719 275.721 196.694 282.831 196.724C296.686 196.784 310.541 196.838 324.395 196.868C338.156 196.898 351.917 196.905 365.676 196.844C372.506 196.814 379.338 196.668 386.165 196.553C392.871 196.44 399.569 196.247 406.27 196.023C407.744 195.976 409.215 195.878 410.687 195.804C412.14 195.728 413.596 195.67 415.048 195.571C418.776 195.321 422.499 195.053 426.222 194.756C432.705 194.234 439.167 193.541 445.658 193.108C452.457 192.653 459.273 192.395 466.08 192.026C469.152 191.858 472.241 191.651 475.292 191.284C478.781 190.867 482.238 190.362 485.685 189.735C489.019 189.127 492.349 188.502 495.686 187.905C497.287 187.617 498.896 187.356 500.512 187.151C502.342 186.919 504.155 186.681 505.96 186.337C506.829 186.171 507 185.152 507 184.495C507.003 184.123 506.937 183.761 506.799 183.409C506.672 183.114 506.405 182.643 505.96 182.657C502.702 182.753 499.445 182.85 496.189 182.984C492.902 183.119 489.611 183.203 486.322 183.243C479.933 183.319 473.533 183.125 467.152 182.891C468.24 182.762 469.327 182.633 470.414 182.504C474.32 182.037 478.216 181.451 482.144 181.137C484.232 180.969 486.329 180.828 488.412 180.612C489.469 180.505 490.518 180.379 491.562 180.193C492.685 179.996 493.79 179.723 494.894 179.452C495.247 179.418 495.516 179.261 495.698 178.988C496.023 178.594 496.172 178.066 496.228 177.561C497.344 177.259 497.569 175.81 497.569 174.938C497.577 174.398 497.48 173.875 497.279 173.366C497.086 172.918 496.716 172.284 496.066 172.278C492.675 172.244 489.289 172.043 485.898 172.006C485.5 172.002 485.102 172 484.704 172C481.786 172 478.873 172.112 475.958 172.251C469.466 172.558 462.971 172.926 456.486 173.34C453.47 173.531 450.459 173.757 447.44 173.918C443.75 174.114 440.067 174.263 436.374 174.389C430.192 174.6 424.002 174.683 417.819 174.783C410.727 174.898 403.643 175.063 396.559 175.356C389.996 175.628 383.44 175.99 376.884 176.335C370.299 176.68 363.714 177.022 357.131 177.372C350.383 177.729 343.629 177.996 336.874 178.261C333.457 178.398 330.036 178.438 326.616 178.523C323.38 178.604 320.141 178.626 316.903 178.666C310.529 178.748 304.157 178.799 297.782 178.858C284.924 178.972 272.072 179.157 259.216 179.345C252.154 179.449 245.092 179.564 238.029 179.679C234.428 179.739 230.823 179.865 227.224 179.956C224.144 180.034 221.067 180.218 217.991 180.356C214.714 180.505 211.439 180.668 208.163 180.834C206.215 180.935 204.265 181.036 202.316 181.136C201.471 181.18 200.623 181.223 199.774 181.267C199.002 181.307 198.231 181.358 197.46 181.408C196.911 181.445 196.372 181.516 195.828 181.597C195.228 181.686 194.628 181.923 194.052 182.095C193.706 182.337 193.466 182.647 193.333 183.023C193.139 183.517 193.045 184.026 193.052 184.55C193.045 185.077 193.139 185.586 193.333 186.081C193.438 186.266 193.544 186.453 193.65 186.639C193.845 186.936 194.134 187.103 194.512 187.139C195.182 187.307 195.844 187.473 196.531 187.573C196.908 187.537 197.194 187.373 197.392 187.078C197.466 186.987 197.53 186.892 197.589 186.791C197.949 186.781 198.31 186.782 198.671 186.782C199.016 186.782 199.362 186.781 199.709 186.773C200.487 186.758 201.265 186.742 202.044 186.726C204.049 186.684 206.053 186.641 208.058 186.6C210.23 186.554 212.402 186.519 214.573 186.485C214.348 186.504 214.125 186.52 213.9 186.536C208.77 186.889 203.643 187.243 198.518 187.646C197.687 187.729 197.057 188.094 196.624 188.742C195.984 189.517 195.633 190.516 195.46 191.519C194.558 191.51 193.656 191.502 192.755 191.496C192.124 191.491 192 192.462 192 192.834C192 193.213 192.124 194.164 192.755 194.171C193.62 194.179 194.483 194.192 195.346 194.202C195.42 195.045 195.613 195.868 195.93 196.677C196.161 197.085 196.392 197.496 196.624 197.905C197.057 198.553 197.687 198.918 198.518 199C203.369 198.62 208.221 198.287 213.075 197.958Z" fill="#18B8BA"/>
</g>
<defs>
<clipPath id="clip0_131_30">
<rect width="315" height="27" fill="white" transform="translate(192 172)"/>
</clipPath>
</defs>
</svg>
