<svg width="433" height="105" viewBox="0 0 433 105" fill="none" xmlns="http://www.w3.org/2000/svg">
<path d="M24.8265 70.77C20.7665 70.77 17.1732 69.9067 14.0465 68.18C10.9665 66.4533 8.53986 64.0733 6.76652 61.04C5.03986 57.96 4.17652 54.46 4.17652 50.54V20.58H15.2365V51.17C15.2365 53.13 15.6565 54.8333 16.4965 56.28C17.3365 57.7267 18.4799 58.8467 19.9265 59.64C21.4199 60.3867 23.0532 60.76 24.8265 60.76C26.6932 60.76 28.3265 60.3867 29.7265 59.64C31.1265 58.8467 32.2232 57.75 33.0165 56.35C33.8565 54.9033 34.2765 53.2 34.2765 51.24V20.58H45.3365V50.61C45.3365 54.53 44.4732 58.0067 42.7465 61.04C41.0199 64.0733 38.6165 66.4533 35.5365 68.18C32.4565 69.9067 28.8865 70.77 24.8265 70.77ZM84.2264 70L70.4364 47.95H69.1064L50.0664 20.58H63.1564L76.7364 41.3H78.0664L97.1064 70H84.2264ZM49.1564 70L67.4264 43.54L75.8964 48.3L61.6864 70H49.1564ZM78.4864 46.69L70.0164 41.93L83.7364 20.58H96.2664L78.4864 46.69ZM137.023 70V62.65H149.903C153.263 62.65 156.203 61.9267 158.723 60.48C161.29 59.0333 163.273 57.0267 164.673 54.46C166.12 51.8467 166.843 48.8367 166.843 45.43C166.843 42.07 166.12 39.1067 164.673 36.54C163.226 33.9733 161.22 31.9667 158.653 30.52C156.133 29.0733 153.216 28.35 149.903 28.35H137.023V21H150.113C153.66 21 156.95 21.63 159.983 22.89C163.016 24.1033 165.653 25.83 167.893 28.07C170.18 30.2633 171.953 32.8533 173.213 35.84C174.473 38.78 175.103 42 175.103 45.5C175.103 48.9533 174.473 52.1733 173.213 55.16C171.953 58.1467 170.203 60.76 167.963 63C165.723 65.1933 163.086 66.92 160.053 68.18C157.02 69.3933 153.753 70 150.253 70H137.023ZM131.493 70V21H139.543V70H131.493ZM197.869 70.7C194.509 70.7 191.476 69.9533 188.769 68.46C186.109 66.92 183.986 64.82 182.399 62.16C180.859 59.5 180.089 56.5133 180.089 53.2C180.089 49.8867 180.859 46.9233 182.399 44.31C183.939 41.65 186.016 39.55 188.629 38.01C191.289 36.47 194.229 35.7 197.449 35.7C200.576 35.7 203.329 36.4233 205.709 37.87C208.136 39.3167 210.026 41.3 211.379 43.82C212.779 46.34 213.479 49.21 213.479 52.43C213.479 52.99 213.433 53.5733 213.339 54.18C213.293 54.74 213.199 55.37 213.059 56.07H185.479V49.77H209.069L206.199 52.29C206.106 50.2367 205.709 48.51 205.009 47.11C204.309 45.71 203.306 44.6367 201.999 43.89C200.739 43.1433 199.176 42.77 197.309 42.77C195.349 42.77 193.646 43.19 192.199 44.03C190.753 44.87 189.633 46.06 188.839 47.6C188.046 49.0933 187.649 50.89 187.649 52.99C187.649 55.09 188.069 56.9333 188.909 58.52C189.749 60.1067 190.939 61.3433 192.479 62.23C194.019 63.07 195.793 63.49 197.799 63.49C199.526 63.49 201.113 63.1867 202.559 62.58C204.053 61.9733 205.313 61.0867 206.339 59.92L211.239 64.89C209.606 66.8033 207.623 68.25 205.289 69.23C202.956 70.21 200.483 70.7 197.869 70.7ZM230.642 70.7C228.775 70.7 226.979 70.4667 225.252 70C223.525 69.4867 221.939 68.7867 220.492 67.9C219.045 66.9667 217.785 65.8467 216.712 64.54L221.612 59.64C222.779 60.9933 224.109 62.02 225.602 62.72C227.142 63.3733 228.869 63.7 230.782 63.7C232.509 63.7 233.815 63.4433 234.702 62.93C235.589 62.4167 236.032 61.67 236.032 60.69C236.032 59.6633 235.612 58.87 234.772 58.31C233.932 57.75 232.835 57.2833 231.482 56.91C230.175 56.49 228.775 56.07 227.282 55.65C225.835 55.23 224.435 54.67 223.082 53.97C221.775 53.2233 220.702 52.22 219.862 50.96C219.022 49.7 218.602 48.0667 218.602 46.06C218.602 43.9133 219.092 42.07 220.072 40.53C221.099 38.99 222.522 37.8 224.342 36.96C226.209 36.12 228.425 35.7 230.992 35.7C233.699 35.7 236.079 36.19 238.132 37.17C240.232 38.1033 241.982 39.5267 243.382 41.44L238.482 46.34C237.502 45.1267 236.382 44.2167 235.122 43.61C233.862 43.0033 232.415 42.7 230.782 42.7C229.242 42.7 228.052 42.9333 227.212 43.4C226.372 43.8667 225.952 44.5433 225.952 45.43C225.952 46.3633 226.372 47.0867 227.212 47.6C228.052 48.1133 229.125 48.5567 230.432 48.93C231.785 49.3033 233.185 49.7233 234.632 50.19C236.125 50.61 237.525 51.2167 238.832 52.01C240.185 52.7567 241.282 53.7833 242.122 55.09C242.962 56.35 243.382 58.0067 243.382 60.06C243.382 63.3267 242.239 65.9167 239.952 67.83C237.665 69.7433 234.562 70.7 230.642 70.7ZM249.8 70V36.4H257.5V70H249.8ZM253.65 30.24C252.343 30.24 251.247 29.7967 250.36 28.91C249.52 28.0233 249.1 26.9267 249.1 25.62C249.1 24.3133 249.52 23.2167 250.36 22.33C251.247 21.4433 252.343 21 253.65 21C255.003 21 256.1 21.4433 256.94 22.33C257.78 23.2167 258.2 24.3133 258.2 25.62C258.2 26.9267 257.78 28.0233 256.94 28.91C256.1 29.7967 255.003 30.24 253.65 30.24ZM280.136 84.7C276.59 84.7 273.486 84.0467 270.826 82.74C268.166 81.48 266.02 79.6833 264.386 77.35L269.426 72.31C270.78 73.99 272.32 75.25 274.046 76.09C275.773 76.93 277.85 77.35 280.276 77.35C283.31 77.35 285.713 76.5567 287.486 74.97C289.26 73.43 290.146 71.3067 290.146 68.6V60.34L291.476 52.92L290.146 45.43V36.4H297.846V68.6C297.846 71.82 297.1 74.62 295.606 77C294.113 79.4267 292.036 81.3167 289.376 82.67C286.716 84.0233 283.636 84.7 280.136 84.7ZM279.786 69.3C276.8 69.3 274.093 68.5767 271.666 67.13C269.286 65.6367 267.396 63.6067 265.996 61.04C264.643 58.4733 263.966 55.6033 263.966 52.43C263.966 49.2567 264.643 46.41 265.996 43.89C267.396 41.37 269.286 39.3867 271.666 37.94C274.093 36.4467 276.8 35.7 279.786 35.7C282.446 35.7 284.78 36.2367 286.786 37.31C288.793 38.3833 290.356 39.8767 291.476 41.79C292.596 43.6567 293.156 45.85 293.156 48.37V56.63C293.156 59.1033 292.573 61.2967 291.406 63.21C290.286 65.1233 288.723 66.6167 286.716 67.69C284.71 68.7633 282.4 69.3 279.786 69.3ZM281.326 62.02C283.193 62.02 284.826 61.6233 286.226 60.83C287.626 60.0367 288.7 58.94 289.446 57.54C290.24 56.0933 290.636 54.4133 290.636 52.5C290.636 50.5867 290.24 48.93 289.446 47.53C288.7 46.0833 287.626 44.9633 286.226 44.17C284.826 43.3767 283.193 42.98 281.326 42.98C279.46 42.98 277.803 43.3767 276.356 44.17C274.956 44.9633 273.86 46.0833 273.066 47.53C272.273 48.93 271.876 50.5867 271.876 52.5C271.876 54.3667 272.273 56.0233 273.066 57.47C273.86 58.9167 274.956 60.0367 276.356 60.83C277.803 61.6233 279.46 62.02 281.326 62.02ZM329.43 70V50.61C329.43 48.37 328.707 46.5267 327.26 45.08C325.86 43.6333 324.04 42.91 321.8 42.91C320.307 42.91 318.977 43.2367 317.81 43.89C316.643 44.5433 315.733 45.4533 315.08 46.62C314.427 47.7867 314.1 49.1167 314.1 50.61L311.09 48.93C311.09 46.3633 311.65 44.1 312.77 42.14C313.89 40.1333 315.43 38.57 317.39 37.45C319.397 36.2833 321.637 35.7 324.11 35.7C326.63 35.7 328.87 36.3533 330.83 37.66C332.79 38.92 334.33 40.5767 335.45 42.63C336.57 44.6367 337.13 46.7367 337.13 48.93V70H329.43ZM306.4 70V36.4H314.1V70H306.4ZM360.565 70.7C357.205 70.7 354.171 69.9533 351.465 68.46C348.805 66.92 346.681 64.82 345.095 62.16C343.555 59.5 342.785 56.5133 342.785 53.2C342.785 49.8867 343.555 46.9233 345.095 44.31C346.635 41.65 348.711 39.55 351.325 38.01C353.985 36.47 356.925 35.7 360.145 35.7C363.271 35.7 366.025 36.4233 368.405 37.87C370.831 39.3167 372.721 41.3 374.075 43.82C375.475 46.34 376.175 49.21 376.175 52.43C376.175 52.99 376.128 53.5733 376.035 54.18C375.988 54.74 375.895 55.37 375.755 56.07H348.175V49.77H371.765L368.895 52.29C368.801 50.2367 368.405 48.51 367.705 47.11C367.005 45.71 366.001 44.6367 364.695 43.89C363.435 43.1433 361.871 42.77 360.005 42.77C358.045 42.77 356.341 43.19 354.895 44.03C353.448 44.87 352.328 46.06 351.535 47.6C350.741 49.0933 350.345 50.89 350.345 52.99C350.345 55.09 350.765 56.9333 351.605 58.52C352.445 60.1067 353.635 61.3433 355.175 62.23C356.715 63.07 358.488 63.49 360.495 63.49C362.221 63.49 363.808 63.1867 365.255 62.58C366.748 61.9733 368.008 61.0867 369.035 59.92L373.935 64.89C372.301 66.8033 370.318 68.25 367.985 69.23C365.651 70.21 363.178 70.7 360.565 70.7ZM382.347 70V36.4H390.047V70H382.347ZM390.047 51.31L387.387 49.98C387.387 45.7333 388.32 42.3033 390.187 39.69C392.1 37.03 394.97 35.7 398.797 35.7C400.477 35.7 401.994 36.0033 403.347 36.61C404.7 37.2167 405.96 38.1967 407.127 39.55L402.087 44.73C401.48 44.0767 400.804 43.61 400.057 43.33C399.31 43.05 398.447 42.91 397.467 42.91C395.32 42.91 393.547 43.5867 392.147 44.94C390.747 46.2933 390.047 48.4167 390.047 51.31Z" fill="#ED3C7D"/>
<rect x="120.5" y="5.5" width="297" height="84" stroke="#41D7D9"/>
<rect x="116.5" y="1.5" width="7" height="7" fill="white" stroke="#18B8BA"/>
<rect x="414.5" y="1.5" width="7" height="7" fill="white" stroke="#18B8BA"/>
<rect x="116.5" y="86.5" width="7" height="7" fill="white" stroke="#18B8BA"/>
<rect x="414.5" y="86.5" width="7" height="7" fill="white" stroke="#18B8BA"/>
<path d="M422.351 103.972L425.671 97.7924L431.972 94.3513C432.706 93.6177 432.344 92.364 431.322 92.1411L418.952 89.3922C418.014 89.1786 417.179 90.0144 417.383 90.9617L420.141 103.322C420.364 104.344 421.618 104.706 422.351 103.972Z" fill="#ED3C7D"/>
</svg>
