<svg width="16" height="25" viewBox="0 0 16 25" fill="none" xmlns="http://www.w3.org/2000/svg">
<path d="M8 12.5C8 11.4391 8.42143 10.4217 9.17157 9.67157C9.92172 8.92143 10.9391 8.5 12 8.5C13.0609 8.5 14.0783 8.92143 14.8284 9.67157C15.5786 10.4217 16 11.4391 16 12.5C16 13.5609 15.5786 14.5783 14.8284 15.3284C14.0783 16.0786 13.0609 16.5 12 16.5C10.9391 16.5 9.92172 16.0786 9.17157 15.3284C8.42143 14.5783 8 13.5609 8 12.5ZM0 20.5C0 19.4391 0.421427 18.4217 1.17157 17.6716C1.92172 16.9214 2.93913 16.5 4 16.5H8V20.5C8 21.5609 7.57857 22.5783 6.82843 23.3284C6.07828 24.0786 5.06087 24.5 4 24.5C2.93913 24.5 1.92172 24.0786 1.17157 23.3284C0.421427 22.5783 0 21.5609 0 20.5ZM8 0.5V8.5H12C13.0609 8.5 14.0783 8.07857 14.8284 7.32843C15.5786 6.57828 16 5.56087 16 4.5C16 3.43913 15.5786 2.42172 14.8284 1.67157C14.0783 0.921427 13.0609 0.5 12 0.5L8 0.5ZM0 4.5C0 5.56087 0.421427 6.57828 1.17157 7.32843C1.92172 8.07857 2.93913 8.5 4 8.5H8V0.5H4C2.93913 0.5 1.92172 0.921427 1.17157 1.67157C0.421427 2.42172 0 3.43913 0 4.5ZM0 12.5C0 13.5609 0.421427 14.5783 1.17157 15.3284C1.92172 16.0786 2.93913 16.5 4 16.5H8V8.5H4C2.93913 8.5 1.92172 8.92143 1.17157 9.67157C0.421427 10.4217 0 11.4391 0 12.5Z" fill="white"/>
</svg>
