<svg width="25" height="25" viewBox="0 0 25 25" fill="none" xmlns="http://www.w3.org/2000/svg">
<path d="M12.3047 0.5C5.50634 0.5 0 6.00942 0 12.8047C0 18.2423 3.52529 22.8535 8.41332 24.4787C9.02856 24.5946 9.25414 24.2142 9.25414 23.8871C9.25414 23.5949 9.24389 22.8207 9.23876 21.7953C5.81601 22.5377 5.09414 20.1444 5.09414 20.1444C4.53427 18.7243 3.72524 18.3449 3.72524 18.3449C2.61064 17.582 3.81137 17.5973 3.81137 17.5973C5.04697 17.6835 5.69604 18.8647 5.69604 18.8647C6.79321 20.7463 8.57636 20.2029 9.27978 19.8881C9.39052 19.0924 9.70737 18.5499 10.0591 18.2423C7.32641 17.9347 4.45429 16.8765 4.45429 12.1618C4.45429 10.8185 4.9311 9.72133 5.72065 8.86C5.58222 8.54931 5.16694 7.29833 5.82832 5.60337C5.82832 5.60337 6.85883 5.27319 9.2121 6.86459C10.1965 6.59082 11.2424 6.45546 12.2883 6.44931C13.3342 6.45546 14.3801 6.59082 15.3644 6.86459C17.7023 5.27319 18.7328 5.60337 18.7328 5.60337C19.3942 7.29833 18.9789 8.54931 18.8559 8.86C19.6403 9.72133 20.1171 10.8185 20.1171 12.1618C20.1171 16.8888 17.2409 17.9296 14.5031 18.2321C14.9338 18.6012 15.3337 19.3559 15.3337 20.5084C15.3337 22.1552 15.3183 23.478 15.3183 23.8779C15.3183 24.2009 15.5336 24.5854 16.1642 24.4623C21.0871 22.8484 24.6094 18.2341 24.6094 12.8047C24.6094 6.00942 19.0999 0.5 12.3047 0.5Z" fill="white"/>
</svg>
