<svg width="25" height="25" viewBox="0 0 25 25" fill="none" xmlns="http://www.w3.org/2000/svg">
<path d="M21.299 21.3042H17.5969V15.5031C17.5969 14.1198 17.5687 12.3396 15.6677 12.3396C13.7375 12.3396 13.4427 13.8448 13.4427 15.401V21.3042H9.74062V9.375H13.2969V11.001H13.3448C13.8417 10.0635 15.05 9.07396 16.8552 9.07396C20.6062 9.07396 21.3 11.5427 21.3 14.7562L21.299 21.3042ZM5.55937 7.74271C5.27696 7.74285 4.99728 7.68729 4.73636 7.57921C4.47544 7.47113 4.23839 7.31266 4.03879 7.11286C3.83918 6.91306 3.68094 6.67586 3.57312 6.41484C3.46529 6.15381 3.41001 5.87409 3.41042 5.59167C3.41062 5.16644 3.53692 4.75082 3.77334 4.39737C4.00975 4.04392 4.34567 3.76851 4.73861 3.60597C5.13155 3.44343 5.56386 3.40106 5.98088 3.48422C6.3979 3.56738 6.78089 3.77234 7.08143 4.07317C7.38197 4.37399 7.58655 4.75719 7.66931 5.17429C7.75206 5.59139 7.70928 6.02366 7.54636 6.41644C7.38344 6.80922 7.10771 7.14487 6.75403 7.38095C6.40035 7.61702 5.9846 7.74291 5.55937 7.74271ZM7.41562 21.3042H3.70312V9.375H7.41562V21.3042ZM23.151 0H1.84479C0.825 0 0 0.80625 0 1.80104V23.199C0 24.1948 0.825 25 1.84479 25H23.1479C24.1667 25 25 24.1948 25 23.199V1.80104C25 0.80625 24.1667 0 23.1479 0H23.151Z" fill="white"/>
</svg>
